<!-- Generated by IcoMoon.io -->
<svg version="1.1" xmlns="http://www.w3.org/2000/svg" width="32" height="32" viewBox="0 0 32 32">
<title>eye</title>
<path d="M16.096 19.218c-5.583 0-10.789-3.006-13.59-7.844-0.409-0.707-0.166-1.608 0.537-2.018 0.707-0.409 1.612-0.166 2.018 0.537 2.274 3.927 6.501 6.367 11.032 6.367s8.759-2.44 11.032-6.37c0.409-0.707 1.311-0.95 2.018-0.54s0.947 1.311 0.54 2.018c-2.798 4.845-8.004 7.85-13.587 7.85zM8.44 20.69c-0.001 0-0.002 0-0.004 0-0.28 0-0.541-0.078-0.764-0.215l0.006 0.004c-0.7-0.422-0.924-1.33-0.502-2.027l1.631-2.699c0.422-0.7 1.33-0.921 2.027-0.502 0.7 0.422 0.924 1.33 0.502 2.027l-1.631 2.699c-0.264 0.43-0.732 0.713-1.266 0.713-0 0-0 0-0 0h0zM23.671 20.69c-0.001 0-0.001 0-0.002 0-0.533 0-1.001-0.283-1.26-0.707l-0.004-0.006-1.631-2.699c-0.134-0.218-0.213-0.482-0.213-0.764 0-0.533 0.282-1 0.706-1.259l0.006-0.004c0.218-0.134 0.482-0.213 0.764-0.213 0.533 0 1 0.282 1.259 0.706l0.004 0.006 1.631 2.699c0.134 0.218 0.213 0.482 0.213 0.764 0 0.533-0.282 1-0.706 1.259l-0.006 0.004c-0.217 0.134-0.48 0.213-0.761 0.214h-0zM16.096 22.611c-0.816 0-1.477-0.662-1.477-1.477v-3.393c0-0.816 0.662-1.477 1.477-1.477s1.477 0.662 1.477 1.477v3.393c0 0.815-0.662 1.477-1.477 1.477zM2.633 16.518c-0.26-0.094-0.478-0.251-0.644-0.452l-0.002-0.003c-0.518-0.633-0.423-1.564 0.209-2.078l2.443-1.993c0.633-0.518 1.563-0.42 2.078 0.209 0.518 0.633 0.423 1.563-0.209 2.078l-2.443 1.993c-0.253 0.207-0.579 0.332-0.934 0.332-0.179 0-0.35-0.032-0.508-0.090l0.010 0.003zM30.514 15.505c-0.052 0.276-0.175 0.517-0.348 0.711l0.001-0.001c-0.543 0.611-1.477 0.665-2.085 0.123l-2.355-2.097c-0.611-0.543-0.662-1.476-0.123-2.085 0.543-0.611 1.477-0.665 2.085-0.123l2.355 2.097c0.304 0.272 0.495 0.666 0.495 1.104 0 0.096-0.009 0.189-0.026 0.28l0.001-0.009z"></path>
</svg>
