<!-- Generated by IcoMoon.io -->
<svg version="1.1" xmlns="http://www.w3.org/2000/svg" width="32" height="32" viewBox="0 0 32 32">
<title>Eye</title>
<path d="M31.787 15.072c-3.478-7.329-8.737-11.018-15.787-11.018-7.054 0-12.309 3.688-15.788 11.020-0.134 0.277-0.212 0.602-0.212 0.945s0.078 0.668 0.218 0.959l-0.006-0.013c3.479 7.33 8.738 11.018 15.788 11.018 7.053 0 12.31-3.688 15.787-11.020 0.134-0.277 0.213-0.602 0.213-0.946s-0.079-0.669-0.219-0.959l0.006 0.013zM16 25.341c-5.92 0-10.254-3.002-13.311-9.322 3.058-6.319 7.391-9.322 13.311-9.322 5.918 0 10.253 3.002 13.313 9.322-3.055 6.32-7.39 9.322-13.313 9.322zM15.853 9.559c-3.567 0-6.458 2.892-6.458 6.459s2.892 6.459 6.459 6.459 6.459-2.892 6.459-6.459v0c-0-3.567-2.893-6.459-6.46-6.459v0zM15.853 20.13c-0 0-0.001 0-0.002 0-2.269 0-4.109-1.84-4.109-4.109 0-0.001 0-0.002 0-0.003v0c0-0 0-0.001 0-0.002 0-2.269 1.84-4.109 4.109-4.109 0.001 0 0.001 0 0.002 0h-0c0 0 0.001 0 0.002 0 2.269 0 4.109 1.84 4.109 4.109 0 0.001 0 0.001 0 0.002v-0c0 0.001 0 0.002 0 0.002 0 2.269-1.84 4.109-4.109 4.109-0.001 0-0.001 0-0.002 0h0z"></path>
</svg>
